<svg xmlns="http://www.w3.org/2000/svg" width="48" height="48" viewBox="0 0 48 48" fill="none">
  <rect x="6.70264" y="4.77441" width="19.8587" height="23.7442" rx="6" fill="url(#paint0_linear_932_17247)"/>
  <g filter="url(#filter0_b_932_17247)">
    <rect x="13.5352" y="10.6562" width="26.0522" height="30.4642" rx="6" fill="#98B8E8" fill-opacity="0.4"/>
    <rect x="14.0352" y="11.1562" width="25.0522" height="29.4642" rx="5.5" stroke="url(#paint1_linear_932_17247)"/>
  </g>
  <g filter="url(#filter1_d_932_17247)">
    <path fill-rule="evenodd" clip-rule="evenodd" d="M23.5775 29.5984C23.6619 29.4577 23.676 29.3029 23.6197 29.134L21.192 22.4739C21.0654 22.1431 20.8226 21.9778 20.4638 21.9778H20.1682C19.8093 21.9778 19.5666 22.1431 19.4399 22.4739L17.0123 29.134C16.956 29.3029 16.9701 29.4577 17.0545 29.5984C17.139 29.7321 17.2726 29.799 17.4556 29.799H17.7828C17.9728 29.799 18.1206 29.7462 18.2261 29.6406C18.3317 29.528 18.4267 29.3627 18.5111 29.1446L19.0008 27.7935H21.6312L22.1209 29.1446C22.1983 29.3627 22.2898 29.528 22.3953 29.6406C22.5079 29.7462 22.6592 29.799 22.8492 29.799H23.1764C23.3593 29.799 23.493 29.7321 23.5775 29.5984ZM21.1338 26.4214L20.316 24.1652L19.4982 26.4214H21.1338ZM26.0374 29.2395C26.0374 29.4225 25.9881 29.5632 25.8896 29.6617C25.7911 29.7532 25.6539 29.799 25.478 29.799H25.1824C24.9995 29.799 24.8587 29.7532 24.7602 29.6617C24.6688 29.5632 24.623 29.4225 24.623 29.2395V22.8855C24.623 22.59 24.7004 22.3648 24.8552 22.21C25.01 22.0552 25.2352 21.9778 25.5307 21.9778H25.7735H26.0374H27.2406C27.7191 21.9778 28.1519 22.0939 28.5389 22.3261C28.9259 22.5513 29.2285 22.8468 29.4466 23.2127C29.6648 23.5786 29.7738 23.9586 29.7738 24.3526C29.7738 24.7396 29.6648 25.1196 29.4466 25.4926C29.2285 25.8585 28.9259 26.161 28.5389 26.4003C28.1519 26.6325 27.7191 26.7486 27.2406 26.7486H26.0374V29.2395ZM26.0374 25.3765V23.3499H27.2406C27.4799 23.3499 27.6839 23.3957 27.8528 23.4871C28.0217 23.5716 28.1484 23.6912 28.2328 23.846C28.3172 23.9938 28.3595 24.1626 28.3595 24.3526C28.3595 24.5426 28.3172 24.715 28.2328 24.8698C28.1484 25.0246 28.0217 25.1478 27.8528 25.2392C27.6839 25.3307 27.4799 25.3765 27.2406 25.3765H26.0374ZM32.4074 29.2395C32.4074 29.4225 32.3582 29.5632 32.2597 29.6617C32.1612 29.7532 32.0239 29.799 31.848 29.799H31.5525C31.3695 29.799 31.2288 29.7532 31.1303 29.6617C31.0388 29.5632 30.9931 29.4225 30.9931 29.2395V22.8855C30.9931 22.59 31.0705 22.3648 31.2253 22.21C31.3801 22.0552 31.6053 21.9778 31.9008 21.9778H32.1436H32.4074H33.6107C34.0892 21.9778 34.5219 22.0939 34.909 22.3261C35.296 22.5513 35.5986 22.8468 35.8167 23.2127C36.0348 23.5786 36.1439 23.9586 36.1439 24.3526C36.1439 24.7396 36.0348 25.1196 35.8167 25.4926C35.5986 25.8585 35.296 26.161 34.909 26.4003C34.5219 26.6325 34.0892 26.7486 33.6107 26.7486H32.4074V29.2395ZM32.4074 25.3765V23.3499H33.6107C33.85 23.3499 34.054 23.3957 34.2229 23.4871C34.3918 23.5716 34.5184 23.6912 34.6029 23.846C34.6873 23.9938 34.7295 24.1626 34.7295 24.3526C34.7295 24.5426 34.6873 24.715 34.6029 24.8698C34.5184 25.0246 34.3918 25.1478 34.2229 25.2392C34.054 25.3307 33.85 25.3765 33.6107 25.3765H32.4074Z" fill="white"/>
  </g>
  <defs>
    <filter id="filter0_b_932_17247" x="7.53516" y="4.65625" width="38.0522" height="42.4641" filterUnits="userSpaceOnUse" color-interpolation-filters="sRGB">
      <feFlood flood-opacity="0" result="BackgroundImageFix"/>
      <feGaussianBlur in="BackgroundImageFix" stdDeviation="3"/>
      <feComposite in2="SourceAlpha" operator="in" result="effect1_backgroundBlur_932_17247"/>
      <feBlend mode="normal" in="SourceGraphic" in2="effect1_backgroundBlur_932_17247" result="shape"/>
    </filter>
    <filter id="filter1_d_932_17247" x="14.9785" y="20.9778" width="23.1655" height="11.8213" filterUnits="userSpaceOnUse" color-interpolation-filters="sRGB">
      <feFlood flood-opacity="0" result="BackgroundImageFix"/>
      <feColorMatrix in="SourceAlpha" type="matrix" values="0 0 0 0 0 0 0 0 0 0 0 0 0 0 0 0 0 0 127 0" result="hardAlpha"/>
      <feOffset dy="1"/>
      <feGaussianBlur stdDeviation="1"/>
      <feComposite in2="hardAlpha" operator="out"/>
      <feColorMatrix type="matrix" values="0 0 0 0 0.659587 0 0 0 0 0.799243 0 0 0 0 1 0 0 0 1 0"/>
      <feBlend mode="normal" in2="BackgroundImageFix" result="effect1_dropShadow_932_17247"/>
      <feBlend mode="normal" in="SourceGraphic" in2="effect1_dropShadow_932_17247" result="shape"/>
    </filter>
    <linearGradient id="paint0_linear_932_17247" x1="6.70264" y1="11.2501" x2="26.9177" y2="14.2258" gradientUnits="userSpaceOnUse">
      <stop stop-color="#0051D4"/>
      <stop offset="1" stop-color="#006EFF"/>
    </linearGradient>
    <linearGradient id="paint1_linear_932_17247" x1="13.5352" y1="12.3971" x2="46.4123" y2="29.8208" gradientUnits="userSpaceOnUse">
      <stop stop-color="white" stop-opacity="0.31"/>
      <stop offset="1" stop-color="#006EFF" stop-opacity="0.3"/>
    </linearGradient>
  </defs>
</svg>