<svg xmlns="http://www.w3.org/2000/svg" width="16" height="16" viewBox="0 0 16 16" fill="none">
  <path d="M2.6665 14.6667C2.6665 11.7212 5.05432 9.33342 7.99984 9.33342C10.9454 9.33342 13.3332 11.7212 13.3332 14.6667H11.9998C11.9998 12.4576 10.209 10.6667 7.99984 10.6667C5.7907 10.6667 3.99984 12.4576 3.99984 14.6667H2.6665ZM7.99984 8.66675C5.78984 8.66675 3.99984 6.87675 3.99984 4.66675C3.99984 2.45675 5.78984 0.666748 7.99984 0.666748C10.2098 0.666748 11.9998 2.45675 11.9998 4.66675C11.9998 6.87675 10.2098 8.66675 7.99984 8.66675ZM7.99984 7.33342C9.47317 7.33342 10.6665 6.14008 10.6665 4.66675C10.6665 3.19341 9.47317 2.00008 7.99984 2.00008C6.5265 2.00008 5.33317 3.19341 5.33317 4.66675C5.33317 6.14008 6.5265 7.33342 7.99984 7.33342Z" fill="#86909C"/>
</svg>