<svg xmlns="http://www.w3.org/2000/svg" width="48" height="48" viewBox="0 0 48 48" fill="none">
<path d="M11.7778 4H36.2223C40.5111 4 44 7.48891 44 11.7778V36.2223C44 40.5111 40.5111 44 36.2222 44H11.7777C7.48891 44 4 40.5111 4 36.2222V11.7777C4 7.48891 7.48891 4 11.7778 4Z" fill="#1F43FF"/>
<path fill-rule="evenodd" clip-rule="evenodd" d="M13.7724 31.0055C12.4549 31.0055 11.3726 29.9264 11.3726 28.6057V27.3913H36.6274V28.6057C36.6274 29.9232 35.5482 31.0055 34.2275 31.0055H26.9958V34.0142H31.2156C31.876 34.0142 32.43 34.5683 32.43 35.2286C32.43 35.889 31.876 36.443 31.2156 36.443H16.7811C16.1207 36.443 15.5667 35.889 15.5667 35.2286C15.5667 34.5683 16.1207 34.0142 16.7811 34.0142H21.0042V31.0055H13.7724ZM13.7724 12.9825H34.2501C35.5708 12.9825 36.6531 14.0648 36.6274 15.3823V26.2026H11.3726V15.3823C11.3726 14.0648 12.4517 12.9825 13.7724 12.9825ZM17.983 19.7933C18.101 19.945 18.1909 20.1248 18.2527 20.3327C18.3089 20.5405 18.3173 20.7877 18.278 21.0743C18.2218 21.4395 18.1038 21.7625 17.924 22.0435C17.7442 22.3244 17.5223 22.5575 17.2582 22.7429C16.9885 22.9283 16.688 23.0688 16.3565 23.1643C16.0194 23.2598 15.6682 23.3076 15.303 23.3076C15.0558 23.3076 14.8311 23.2879 14.6288 23.2486C14.421 23.2093 14.2384 23.1615 14.081 23.1053C13.9293 23.0491 13.8029 22.9901 13.7018 22.9283C13.6063 22.8665 13.5389 22.8132 13.4995 22.7682L13.6175 22.4901C13.713 22.2766 13.8591 22.1165 14.0558 22.0097C14.2524 21.903 14.4603 21.8833 14.6794 21.9507C14.7131 21.962 14.7412 21.9704 14.7637 21.976C14.9603 22.0378 15.1935 22.0687 15.4632 22.0687C15.6373 22.0687 15.7975 22.0463 15.9435 22.0013C16.0896 21.962 16.2188 21.903 16.3312 21.8243C16.4379 21.7513 16.525 21.6586 16.5924 21.5462C16.6599 21.4339 16.7048 21.3074 16.7273 21.167C16.7498 21.0097 16.7245 20.8748 16.6514 20.7625C16.5784 20.6445 16.4773 20.5405 16.3481 20.4506C16.2188 20.3664 16.0699 20.2849 15.9014 20.2062C15.7328 20.1276 15.5587 20.0433 15.3789 19.9534C15.1991 19.8691 15.0277 19.7708 14.8648 19.6585C14.7019 19.5517 14.5586 19.4197 14.435 19.2624C14.317 19.1107 14.2299 18.9281 14.1737 18.7146C14.1119 18.5067 14.1035 18.2567 14.1485 17.9645C14.199 17.6555 14.3086 17.3858 14.4771 17.1555C14.6457 16.9027 14.8479 16.692 15.0839 16.5234C15.3255 16.3549 15.598 16.2285 15.9014 16.1442C16.2104 16.0599 16.5278 16.0178 16.8537 16.0178C17.0223 16.0178 17.1908 16.0318 17.3594 16.0599C17.5223 16.0824 17.674 16.1161 17.8144 16.161C17.9549 16.206 18.0785 16.2537 18.1853 16.3043L18.3032 16.3717C18.3482 16.3942 18.3847 16.4167 18.4128 16.4391L18.4549 16.4644L18.2527 16.9027C18.0504 17.2903 17.7161 17.4055 17.2498 17.2482H17.2414C17.0672 17.192 16.893 17.1527 16.7189 17.1302C16.5503 17.1302 16.3986 17.1527 16.2638 17.1976C16.1514 17.2369 16.0559 17.2875 15.9772 17.3493C15.8873 17.4167 15.8143 17.4982 15.7581 17.5937C15.7076 17.6836 15.6738 17.7819 15.657 17.8887C15.6345 18.046 15.6598 18.1808 15.7328 18.2932C15.8003 18.4112 15.9014 18.5123 16.0362 18.5966C16.1711 18.6865 16.3228 18.7708 16.4913 18.8494C16.6655 18.9281 16.8425 19.0095 17.0223 19.0938C17.202 19.1837 17.3762 19.2848 17.5448 19.3972C17.7133 19.504 17.8594 19.636 17.983 19.7933ZM34.0289 19.7933C34.1468 19.945 34.2367 20.1248 34.2985 20.3327C34.3547 20.5405 34.3631 20.7877 34.3238 21.0743C34.2676 21.4395 34.1496 21.7625 33.9699 22.0435C33.7901 22.3244 33.5681 22.5575 33.3041 22.7429C33.0344 22.9283 32.7338 23.0688 32.4023 23.1643C32.0652 23.2598 31.7141 23.3076 31.3489 23.3076C31.1017 23.3076 30.877 23.2879 30.6747 23.2486C30.4668 23.2093 30.2842 23.1615 30.1269 23.1053C29.9752 23.0491 29.8488 22.9901 29.7477 22.9283C29.6522 22.8665 29.5847 22.8132 29.5454 22.7682L29.6634 22.4901C29.7589 22.2766 29.905 22.1165 30.1016 22.0097C30.2983 21.903 30.5061 21.8833 30.7253 21.9507C30.759 21.962 30.7871 21.9704 30.8095 21.976C31.0062 22.0378 31.2393 22.0687 31.509 22.0687C31.6832 22.0687 31.8433 22.0463 31.9894 22.0013C32.1355 21.962 32.2647 21.903 32.3771 21.8243C32.4838 21.7513 32.5709 21.6586 32.6383 21.5462C32.7057 21.4339 32.7507 21.3074 32.7732 21.167C32.7956 21.0097 32.7703 20.8748 32.6973 20.7625C32.6243 20.6445 32.5231 20.5405 32.3939 20.4506C32.2647 20.3664 32.1158 20.2849 31.9473 20.2062C31.7787 20.1276 31.6045 20.0433 31.4247 19.9534C31.245 19.8691 31.0736 19.7708 30.9107 19.6585C30.7477 19.5517 30.6045 19.4197 30.4809 19.2624C30.3629 19.1107 30.2758 18.9281 30.2196 18.7146C30.1578 18.5067 30.1494 18.2567 30.1943 17.9645C30.2449 17.6555 30.3544 17.3858 30.523 17.1555C30.6915 16.9027 30.8938 16.692 31.1298 16.5234C31.3714 16.3549 31.6439 16.2285 31.9473 16.1442C32.2563 16.0599 32.5737 16.0178 32.8996 16.0178C33.0681 16.0178 33.2367 16.0318 33.4052 16.0599C33.5681 16.0824 33.7198 16.1161 33.8603 16.161C34.0008 16.206 34.1244 16.2537 34.2311 16.3043L34.3491 16.3717C34.394 16.3942 34.4306 16.4167 34.4587 16.4391L34.5008 16.4644L34.2985 16.9027C34.0963 17.2903 33.762 17.4055 33.2957 17.2482H33.2872C33.1131 17.192 32.9389 17.1527 32.7647 17.1302C32.5962 17.1302 32.4445 17.1527 32.3096 17.1976C32.1973 17.2369 32.1018 17.2875 32.0231 17.3493C31.9332 17.4167 31.8602 17.4982 31.804 17.5937C31.7534 17.6836 31.7197 17.7819 31.7029 17.8887C31.6804 18.046 31.7057 18.1808 31.7787 18.2932C31.8461 18.4112 31.9473 18.5123 32.0821 18.5966C32.2169 18.6865 32.3686 18.7708 32.5372 18.8494C32.7113 18.9281 32.8883 19.0095 33.0681 19.0938C33.2479 19.1837 33.4221 19.2848 33.5906 19.3972C33.7592 19.504 33.9052 19.636 34.0289 19.7933ZM29.1484 19.5658L28.6174 23.316H27.9601C27.8196 23.316 27.7045 23.2626 27.6146 23.1559C27.5247 23.0548 27.491 22.9087 27.5134 22.7177L27.5303 22.5912C27.2887 22.816 27.0246 22.993 26.7381 23.1222C26.4516 23.2458 26.1426 23.3076 25.8111 23.3076C25.5414 23.3076 25.297 23.2739 25.0779 23.2064C24.8644 23.1334 24.6846 23.0267 24.5385 22.8862C24.3924 22.7514 24.2857 22.58 24.2183 22.3721C24.1565 22.1642 24.1452 21.9227 24.1846 21.6474C24.2295 21.3496 24.325 21.0911 24.4711 20.872C24.6172 20.6529 24.8166 20.4703 25.0695 20.3242C25.3167 20.1838 25.6172 20.0798 25.9712 20.0124C26.3252 19.945 26.7297 19.9113 27.1848 19.9113H27.682L27.7241 19.5995C27.7466 19.4365 27.7522 19.2961 27.741 19.1781C27.7241 19.0545 27.6848 18.9534 27.623 18.8747C27.5556 18.796 27.4629 18.737 27.3449 18.6977C27.2269 18.6584 27.078 18.6387 26.8982 18.6387C26.6566 18.6387 26.4375 18.6668 26.2409 18.723C26.0442 18.7736 25.8673 18.8326 25.7099 18.9C25.6088 18.9393 25.5133 18.9365 25.4234 18.8916C25.3335 18.8466 25.2745 18.7708 25.2464 18.664L25.1284 18.0909C25.1902 18.0404 25.283 17.987 25.4066 17.9308C25.5526 17.8634 25.7184 17.8016 25.9038 17.7454C26.0892 17.6836 26.2914 17.6358 26.5106 17.6021C26.7297 17.5628 26.9516 17.5431 27.1763 17.5431C27.5752 17.5431 27.9123 17.5825 28.1876 17.6611C28.4629 17.7398 28.6792 17.8606 28.8366 18.0235C28.9995 18.1864 29.1034 18.3971 29.1484 18.6556C29.1989 18.9084 29.1989 19.2118 29.1484 19.5658ZM27.4376 21.6811L27.5556 20.813H27.0078C26.7718 20.813 26.5696 20.8299 26.401 20.8636C26.2325 20.8973 26.092 20.9479 25.9796 21.0153C25.8673 21.0883 25.7802 21.1726 25.7184 21.2681C25.6566 21.3636 25.6172 21.476 25.6004 21.6052C25.5723 21.8187 25.6172 21.9873 25.7352 22.1109C25.8532 22.2289 26.033 22.2878 26.2746 22.2878C26.4769 22.2878 26.6707 22.2373 26.8561 22.1362C27.0359 22.035 27.2297 21.8833 27.4376 21.6811ZM23.1973 23.316L23.7282 19.5658C23.7788 19.2118 23.7788 18.9084 23.7282 18.6556C23.6833 18.3971 23.5794 18.1864 23.4164 18.0235C23.2591 17.8606 23.0428 17.7398 22.7675 17.6611C22.4922 17.5825 22.1551 17.5431 21.7562 17.5431C21.5315 17.5431 21.3095 17.5628 21.0904 17.6021C20.8713 17.6358 20.669 17.6836 20.4836 17.7454C20.2982 17.8016 20.1325 17.8634 19.9864 17.9308C19.8628 17.987 19.7701 18.0404 19.7083 18.0909L19.8263 18.664C19.8544 18.7708 19.9134 18.8466 20.0033 18.8916C20.0932 18.9365 20.1887 18.9393 20.2898 18.9C20.4471 18.8326 20.6241 18.7736 20.8207 18.723C21.0174 18.6668 21.2365 18.6387 21.4781 18.6387C21.6579 18.6387 21.8068 18.6584 21.9247 18.6977C22.0427 18.737 22.1354 18.796 22.2029 18.8747C22.2647 18.9534 22.304 19.0545 22.3208 19.1781C22.3321 19.2961 22.3265 19.4365 22.304 19.5995L22.2619 19.9113H21.7646C21.3095 19.9113 20.905 19.945 20.5511 20.0124C20.1971 20.0798 19.8965 20.1838 19.6493 20.3242C19.3965 20.4703 19.197 20.6529 19.051 20.872C18.9049 21.0911 18.8094 21.3496 18.7644 21.6474C18.7251 21.9227 18.7363 22.1642 18.7981 22.3721C18.8656 22.58 18.9723 22.7514 19.1184 22.8862C19.2645 23.0267 19.4442 23.1334 19.6577 23.2064C19.8769 23.2739 20.1213 23.3076 20.3909 23.3076C20.7224 23.3076 21.0314 23.2458 21.318 23.1222C21.6045 22.993 21.8686 22.816 22.1102 22.5912L22.0933 22.7177C22.0708 22.9087 22.1045 23.0548 22.1944 23.1559C22.2843 23.2626 22.3995 23.316 22.54 23.316H23.1973ZM22.1354 20.813L22.0175 21.6811C21.8096 21.8833 21.6157 22.035 21.436 22.1362C21.2505 22.2373 21.0567 22.2878 20.8545 22.2878C20.6129 22.2878 20.4331 22.2289 20.3151 22.1109C20.1971 21.9873 20.1522 21.8187 20.1802 21.6052C20.1971 21.476 20.2364 21.3636 20.2982 21.2681C20.36 21.1726 20.4471 21.0883 20.5595 21.0153C20.6719 20.9479 20.8123 20.8973 20.9809 20.8636C21.1494 20.8299 21.3517 20.813 21.5876 20.813H22.1354Z" fill="#F3F5FF"/>
</svg>