<svg width="40" height="40" viewBox="0 0 40 40" fill="none" xmlns="http://www.w3.org/2000/svg">
<g id="Frame 50">
<g id="Group 14">
<path id="Vector" d="M19.9999 4.96191L24.403 9.3657L30.6344 9.3664L30.6329 15.5949L35.0381 20.0001L30.6329 24.4032L30.6336 30.6346L24.403 30.6332L20.0006 35.0384L15.5947 30.6332L9.36618 30.6339V24.4032L4.9624 20.0008L9.36618 15.5949V9.3664L15.5947 9.3657L19.9999 4.96191ZM19.9999 7.96913L16.4766 11.4924H11.4929V16.4761L7.96962 19.9994L11.4929 23.5227V28.5071L16.4766 28.5064L19.9999 32.0304L23.5232 28.5064L28.5076 28.5071L28.5069 23.5234L32.0309 19.9994L28.5069 16.4761L28.5076 11.4924H23.5232L19.9999 7.96913ZM24.3654 16.1621L25.869 17.6657L19.1017 24.433L14.3399 19.6712L15.8435 18.1669L19.1017 21.4251L24.3654 16.1621Z" fill="white"/>
</g>
</g>
</svg>
