<svg width="41" height="40" viewBox="0 0 41 40" fill="none" xmlns="http://www.w3.org/2000/svg">
<g id="Frame 50">
<g id="Group 12">
<path id="Vector" d="M30.0735 22.5185C30.8047 22.5188 31.526 22.6875 32.1815 23.0117C32.837 23.3358 33.409 23.8065 33.8531 24.3874C34.2973 24.9683 34.6016 25.6437 34.7426 26.3612C34.8835 27.0787 34.8573 27.8191 34.6659 28.5248C34.4745 29.2306 34.1231 29.8827 33.639 30.4307C33.1548 30.9787 32.5509 31.4078 31.8742 31.6847C31.1974 31.9616 30.4659 32.0789 29.7365 32.0274C29.0071 31.976 28.2994 31.7572 27.6682 31.388C25.4056 32.8795 22.7241 33.6057 20.0181 33.4597C18.6885 33.3914 17.378 33.1145 16.1344 32.6394L15.8 32.5054L16.6774 30.3956C17.7666 30.8488 18.9319 31.1146 20.1376 31.1778C22.1903 31.289 24.2298 30.7885 25.9978 29.7398C25.5619 29.0177 25.3257 28.1928 25.3134 27.3494C25.301 26.506 25.5129 25.6745 25.9275 24.94C26.342 24.2054 26.9443 23.5942 27.6726 23.1689C28.401 22.7435 29.2293 22.5193 30.0727 22.5192L30.0735 22.5185ZM13.7702 10.0874L15.0094 12.0068C13.6189 12.9012 12.4613 14.1137 11.6322 15.5441C10.8031 16.9745 10.3264 18.5816 10.2414 20.2327C10.1994 21.0244 10.2475 21.8184 10.3846 22.5992C11.5248 22.3856 12.7038 22.5956 13.7 23.1899C14.6963 23.7842 15.4413 24.7218 15.795 25.8266C16.1487 26.9314 16.0869 28.1273 15.6211 29.1897C15.1552 30.2521 14.3175 31.1079 13.2652 31.5962C12.213 32.0845 11.0186 32.1718 9.90654 31.8417C8.79447 31.5115 7.84122 30.7866 7.22588 29.8032C6.61055 28.8198 6.37548 27.6456 6.56484 26.5011C6.75419 25.3566 7.35495 24.3207 8.25423 23.5879C7.99694 22.4487 7.89801 21.2794 7.96023 20.1132C8.06153 18.1488 8.61773 16.2348 9.58499 14.5221C10.5523 12.8093 11.9041 11.3447 13.5341 10.2436L13.7702 10.0874ZM30.0735 24.8035C29.417 24.8035 28.7873 25.0643 28.3231 25.5285C27.8589 25.9927 27.5981 26.6223 27.5981 27.2789C27.5981 27.9354 27.8589 28.565 28.3231 29.0292C28.7873 29.4934 29.417 29.7542 30.0735 29.7542C30.73 29.7542 31.3596 29.4934 31.8238 29.0292C32.2881 28.565 32.5489 27.9354 32.5489 27.2789C32.5489 26.6223 32.2881 25.9927 31.8238 25.5285C31.3596 25.0643 30.73 24.8035 30.0735 24.8035ZM11.2605 24.8035C10.604 24.8035 9.97436 25.0643 9.51013 25.5285C9.04591 25.9927 8.78511 26.6223 8.78511 27.2789C8.78511 27.9354 9.04591 28.565 9.51013 29.0292C9.97436 29.4934 10.604 29.7542 11.2605 29.7542C11.917 29.7542 12.5466 29.4934 13.0109 29.0292C13.4751 28.565 13.7359 27.9354 13.7359 27.2789C13.7359 26.6223 13.4751 25.9927 13.0109 25.5285C12.5466 25.0643 11.917 24.8035 11.2605 24.8035ZM20.667 4.42908C21.8881 4.4291 23.0625 4.89837 23.9474 5.73987C24.8323 6.58136 25.3599 7.73072 25.4213 8.95029C27.7889 9.90959 29.813 11.5592 31.2302 13.6846C32.6475 15.81 33.3922 18.3128 33.3677 20.8672L33.3623 21.1353L31.0789 21.0637C31.1418 19.0057 30.5949 16.975 29.5069 15.2269C28.419 13.4789 26.8385 12.0914 24.9643 11.2391C24.5977 12.0075 24.0317 12.6636 23.3253 13.1389C22.6189 13.6143 21.7979 13.8914 20.948 13.9416C20.098 13.9917 19.2502 13.8129 18.4928 13.4239C17.7354 13.0349 17.0963 12.4499 16.6419 11.7299C16.1875 11.0098 15.9346 10.1811 15.9094 9.33001C15.8843 8.47895 16.0879 7.63672 16.499 6.8911C16.91 6.14548 17.5136 5.52376 18.2467 5.09073C18.9797 4.6577 19.8156 4.42921 20.667 4.42908ZM20.667 6.71406C20.3419 6.71406 20.02 6.77808 19.7197 6.90248C19.4194 7.02688 19.1465 7.20922 18.9166 7.43908C18.6868 7.66894 18.5044 7.94183 18.38 8.24216C18.2556 8.54248 18.1916 8.86437 18.1916 9.18945C18.1916 9.51452 18.2556 9.83641 18.38 10.1367C18.5044 10.4371 18.6868 10.71 18.9166 10.9398C19.1465 11.1697 19.4194 11.352 19.7197 11.4764C20.02 11.6008 20.3419 11.6648 20.667 11.6648C21.3235 11.6648 21.9531 11.404 22.4174 10.9398C22.8816 10.4756 23.1424 9.84596 23.1424 9.18945C23.1424 8.53293 22.8816 7.90331 22.4174 7.43908C21.9531 6.97485 21.3235 6.71406 20.667 6.71406Z" fill="white"/>
</g>
</g>
</svg>
